<?xml version="1.0" encoding="utf-8"?>
<!-- Generator: Adobe Illustrator 16.0.0, SVG Export Plug-In . SVG Version: 6.00 Build 0)  -->
<!DOCTYPE svg PUBLIC "-//W3C//DTD SVG 1.0//EN" "http://www.w3.org/TR/2001/REC-SVG-20010904/DTD/svg10.dtd">
<svg version="1.0" id="Layer_1" xmlns="http://www.w3.org/2000/svg" xmlns:xlink="http://www.w3.org/1999/xlink" x="0px" y="0px"
	 width="139px" height="102px" viewBox="0 0 139 102" enable-background="new 0 0 139 102" xml:space="preserve">
<g>
	<path fill="#FFC033" d="M8,0v50.617c3.457,0.535,6.802,1.414,10,2.599V10h111v74H48.784c1.184,3.198,2.063,6.543,2.599,10H139V0H8z
		"/>
	<path fill="#FFC033" d="M43.947,99.892c-0.024-0.486-0.063-0.969-0.103-1.45c-0.015-0.187-0.025-0.374-0.042-0.56
		c-0.059-0.616-0.13-1.229-0.214-1.839c-0.005-0.036-0.008-0.072-0.014-0.107c-0.09-0.645-0.193-1.286-0.31-1.922
		C39.98,76.12,25.881,62.021,7.988,58.736c-0.637-0.116-1.278-0.221-1.924-0.311c-0.035-0.004-0.07-0.008-0.105-0.014
		c-0.61-0.083-1.223-0.155-1.841-0.214c-0.185-0.017-0.372-0.027-0.558-0.042c-0.482-0.04-0.964-0.079-1.451-0.104
		C1.41,58.021,0.707,58,0,58v8c19.851,0,36,16.149,36,36h8C44,101.293,43.979,100.59,43.947,99.892z"/>
	<g>
		<path fill="#FFC033" d="M0,90v12h12C12,95.373,6.627,90,0,90z"/>
		<path fill="#FFC033" d="M0,74v8c11.028,0,20,8.973,20,20h8C28,86.536,15.464,74,0,74z"/>
	</g>
</g>
</svg>
