<?xml version="1.0" encoding="utf-8"?>
<!-- Generator: Adobe Illustrator 16.0.0, SVG Export Plug-In . SVG Version: 6.00 Build 0)  -->
<!DOCTYPE svg PUBLIC "-//W3C//DTD SVG 1.0//EN" "http://www.w3.org/TR/2001/REC-SVG-20010904/DTD/svg10.dtd">
<svg version="1.0" id="Layer_1" xmlns="http://www.w3.org/2000/svg" xmlns:xlink="http://www.w3.org/1999/xlink" x="0px" y="0px"
	 width="410px" height="80px" viewBox="0 0 410 80" enable-background="new 0 0 410 80" xml:space="preserve">
<g>
	<g>
		<circle fill="#FFFFFF" enable-background="new    " cx="40.778" cy="40" r="14.072"/>
		<path fill="#FFFFFF" enable-background="new    " d="M40.693,23.234v-0.003h34.006C68.517,10.75,55.651,2.167,40.778,2.167
			c-12.041,0-22.766,5.624-29.695,14.389l12.973,22.187C24.698,30.097,31.894,23.276,40.693,23.234z M40.778,56.768
			c-7.257,0-13.436-4.608-15.772-11.058L9.35,18.933c-4.045,6.021-6.405,13.27-6.405,21.068c0,19.043,14.072,34.798,32.383,37.44
			L48.381,54.95C46.099,56.112,43.515,56.768,40.778,56.768z M75.906,25.929H49.899c4.602,2.99,7.646,8.175,7.646,14.072
			c0,2.899-0.735,5.627-2.03,8.007l0.009,0.007L38.268,77.75c0.829,0.054,1.665,0.084,2.511,0.084
			c20.895,0,37.833-16.938,37.833-37.833C78.611,35.026,77.649,30.28,75.906,25.929z"/>
	</g>
	<g>
		<path fill="#FFFFFF" d="M112.2,55.036c-4.444,0-7.886-1.368-10.323-4.104c-2.437-2.735-3.655-6.606-3.655-11.611
			c0-5.136,1.237-9.104,3.712-11.906s5.999-4.202,10.575-4.202c1.475,0,2.95,0.159,4.426,0.477s2.634,0.69,3.474,1.12l-1.429,3.95
			c-1.027-0.41-2.147-0.752-3.361-1.022s-2.288-0.406-3.222-0.406c-6.237,0-9.356,3.978-9.356,11.934
			c0,3.773,0.761,6.668,2.283,8.685c1.521,2.018,3.777,3.025,6.766,3.025c2.559,0,5.183-0.551,7.871-1.652v4.118
			C117.906,54.504,115.319,55.036,112.2,55.036z"/>
		<path fill="#FFFFFF" d="M148.255,54.476V34.613c0-2.502-0.57-4.37-1.709-5.603c-1.14-1.232-2.924-1.849-5.351-1.849
			c-3.231,0-5.589,0.878-7.074,2.633c-1.484,1.756-2.227,4.632-2.227,8.629v16.052h-4.65v-43.59h4.65V24.08
			c0,1.588-0.075,2.904-0.225,3.95h0.28c0.915-1.475,2.218-2.638,3.908-3.487c1.689-0.85,3.618-1.275,5.785-1.275
			c3.754,0,6.568,0.893,8.445,2.676c1.877,1.784,2.815,4.618,2.815,8.502v20.03H148.255z"/>
		<path fill="#FFFFFF" d="M176.465,23.212c1.363,0,2.586,0.112,3.67,0.336l-0.645,4.314c-1.271-0.28-2.391-0.42-3.361-0.42
			c-2.484,0-4.608,1.008-6.373,3.025c-1.766,2.017-2.647,4.529-2.647,7.535v16.473h-4.65V23.772h3.838l0.532,5.687h0.224
			c1.14-1.998,2.512-3.539,4.118-4.622S174.541,23.212,176.465,23.212z"/>
		<path fill="#FFFFFF" d="M212.379,39.096c0,5.006-1.261,8.913-3.782,11.724c-2.521,2.812-6.004,4.217-10.449,4.217
			c-2.745,0-5.183-0.645-7.312-1.934c-2.129-1.288-3.772-3.137-4.931-5.547c-1.158-2.409-1.736-5.229-1.736-8.46
			c0-5.005,1.251-8.903,3.754-11.695c2.502-2.792,5.976-4.188,10.421-4.188c4.296,0,7.708,1.429,10.239,4.286
			C211.113,30.355,212.379,34.222,212.379,39.096z M188.987,39.096c0,3.922,0.784,6.91,2.354,8.965
			c1.568,2.055,3.875,3.081,6.919,3.081s5.355-1.022,6.934-3.067s2.367-5.037,2.367-8.979c0-3.903-0.789-6.867-2.367-8.895
			c-1.578-2.026-3.908-3.039-6.989-3.039c-3.045,0-5.342,0.999-6.892,2.997C189.762,32.158,188.987,35.137,188.987,39.096z"/>
		<path fill="#FFFFFF" d="M259.667,54.476V34.502c0-2.446-0.523-4.281-1.569-5.505s-2.671-1.835-4.874-1.835
			c-2.896,0-5.033,0.831-6.415,2.493c-1.383,1.662-2.073,4.221-2.073,7.676v17.145h-4.65V34.502c0-2.446-0.523-4.281-1.569-5.505
			s-2.68-1.835-4.902-1.835c-2.913,0-5.047,0.873-6.401,2.619c-1.354,1.746-2.03,4.608-2.03,8.586v16.108h-4.65V23.772h3.781
			l0.757,4.202h0.224c0.878-1.494,2.115-2.661,3.712-3.502c1.598-0.841,3.386-1.261,5.365-1.261c4.8,0,7.937,1.737,9.412,5.211
			h0.225c0.915-1.606,2.241-2.876,3.978-3.811c1.737-0.934,3.717-1.4,5.939-1.4c3.474,0,6.074,0.893,7.802,2.676
			s2.591,4.636,2.591,8.558v20.03H259.667z"/>
		<path fill="#FFFFFF" d="M286.868,55.036c-4.539,0-8.12-1.382-10.744-4.146c-2.624-2.764-3.936-6.602-3.936-11.514
			c0-4.949,1.219-8.88,3.655-11.794c2.438-2.913,5.711-4.37,9.819-4.37c3.847,0,6.892,1.266,9.133,3.796
			c2.241,2.531,3.361,5.869,3.361,10.015v2.941h-21.15c0.093,3.605,1.004,6.341,2.731,8.209c1.728,1.867,4.16,2.801,7.298,2.801
			c3.306,0,6.573-0.69,9.805-2.073v4.146c-1.644,0.71-3.198,1.219-4.664,1.526C290.71,54.882,288.94,55.036,286.868,55.036z
			 M285.607,27.105c-2.466,0-4.432,0.804-5.897,2.41c-1.466,1.605-2.33,3.828-2.591,6.667h16.052c0-2.932-0.654-5.178-1.961-6.737
			C289.902,27.886,288.035,27.105,285.607,27.105z"/>
		<path fill="#FFFFFF" d="M318.354,55.036c-4.444,0-7.886-1.368-10.323-4.104c-2.437-2.735-3.655-6.606-3.655-11.611
			c0-5.136,1.237-9.104,3.712-11.906s5.999-4.202,10.575-4.202c1.475,0,2.95,0.159,4.426,0.477s2.634,0.69,3.474,1.12l-1.429,3.95
			c-1.027-0.41-2.147-0.752-3.361-1.022s-2.288-0.406-3.222-0.406c-6.237,0-9.356,3.978-9.356,11.934
			c0,3.773,0.761,6.668,2.283,8.685c1.521,2.018,3.777,3.025,6.766,3.025c2.559,0,5.183-0.551,7.871-1.652v4.118
			C324.061,54.504,321.474,55.036,318.354,55.036z"/>
		<path fill="#FFFFFF" d="M352.28,54.476l-0.924-4.37h-0.225c-1.531,1.924-3.059,3.227-4.58,3.908
			c-1.522,0.682-3.423,1.022-5.701,1.022c-3.044,0-5.43-0.784-7.157-2.354c-1.728-1.568-2.591-3.8-2.591-6.695
			c0-6.2,4.958-9.45,14.875-9.749l5.211-0.168v-1.905c0-2.409-0.519-4.188-1.556-5.336c-1.036-1.148-2.693-1.724-4.972-1.724
			c-2.56,0-5.454,0.785-8.685,2.354l-1.429-3.558c1.513-0.821,3.17-1.466,4.973-1.933c1.802-0.467,3.608-0.701,5.421-0.701
			c3.66,0,6.373,0.813,8.138,2.438s2.647,4.23,2.647,7.816v20.954H352.28z M341.775,51.198c2.895,0,5.169-0.794,6.821-2.382
			c1.653-1.587,2.479-3.81,2.479-6.667v-2.773l-4.65,0.196c-3.698,0.131-6.364,0.705-7.998,1.723
			c-1.635,1.019-2.451,2.601-2.451,4.748c0,1.682,0.509,2.961,1.526,3.838C338.521,50.76,339.945,51.198,341.775,51.198z"/>
		<path fill="#FFFFFF" d="M385.112,46.1c0,2.857-1.064,5.062-3.193,6.611s-5.117,2.325-8.965,2.325
			c-4.071,0-7.246-0.645-9.524-1.934v-4.313c1.475,0.747,3.058,1.335,4.748,1.765s3.319,0.645,4.889,0.645
			c2.428,0,4.295-0.388,5.603-1.163c1.308-0.774,1.961-1.956,1.961-3.544c0-1.194-0.519-2.217-1.555-3.067
			c-1.036-0.85-3.059-1.854-6.064-3.012c-2.857-1.064-4.889-1.993-6.094-2.787c-1.204-0.793-2.101-1.694-2.689-2.703
			c-0.588-1.009-0.882-2.213-0.882-3.614c0-2.502,1.018-4.477,3.054-5.925c2.035-1.447,4.827-2.171,8.376-2.171
			c3.306,0,6.536,0.673,9.692,2.018l-1.652,3.781c-3.082-1.27-5.874-1.905-8.376-1.905c-2.204,0-3.866,0.347-4.987,1.037
			c-1.12,0.691-1.681,1.644-1.681,2.857c0,0.822,0.21,1.522,0.631,2.101c0.42,0.579,1.097,1.131,2.03,1.653s2.727,1.279,5.379,2.269
			c3.642,1.327,6.103,2.662,7.382,4.007S385.112,44.064,385.112,46.1z"/>
		<path fill="#FFFFFF" d="M402.594,51.198c0.821,0,1.615-0.061,2.381-0.183c0.766-0.121,1.373-0.247,1.821-0.378v3.558
			c-0.505,0.243-1.247,0.443-2.228,0.603c-0.98,0.158-1.863,0.238-2.647,0.238c-5.938,0-8.908-3.128-8.908-9.385V27.386h-4.398
			v-2.241l4.398-1.933l1.961-6.556h2.689v7.116h8.908v3.613h-8.908v18.069c0,1.849,0.438,3.269,1.316,4.258
			C399.857,50.703,401.062,51.198,402.594,51.198z"/>
	</g>
</g>
</svg>
