<?xml version="1.0" encoding="utf-8"?>
<!-- Generator: Adobe Illustrator 16.0.0, SVG Export Plug-In . SVG Version: 6.00 Build 0)  -->
<!DOCTYPE svg PUBLIC "-//W3C//DTD SVG 1.0//EN" "http://www.w3.org/TR/2001/REC-SVG-20010904/DTD/svg10.dtd">
<svg version="1.0" id="Layer_1" xmlns="http://www.w3.org/2000/svg" xmlns:xlink="http://www.w3.org/1999/xlink" x="0px" y="0px"
	 width="439.372px" height="88.117px" viewBox="0 0 439.372 88.117" enable-background="new 0 0 439.372 88.117"
	 xml:space="preserve">
<g>
	<g enable-background="new    ">
		<circle fill="#FFFFFF" enable-background="new    " cx="42.24" cy="42.24" r="15.711"/>
		<path fill="#FFFFFF" d="M42.145,23.521v-0.003H80.11C73.208,9.583,58.845,0,42.24,0C28.796,0,16.823,6.279,9.086,16.064
			L23.57,40.834C24.287,31.182,32.32,23.567,42.145,23.521z"/>
		<path fill="#FFFFFF" d="M42.24,60.958c-8.102,0-15-5.145-17.609-12.345L7.151,18.718C2.635,25.44,0,33.533,0,42.24
			c0,21.26,15.711,38.85,36.154,41.8l14.574-25.11C48.18,60.228,45.294,60.958,42.24,60.958z"/>
		<path fill="#FFFFFF" d="M81.458,26.529H52.423c5.138,3.338,8.536,9.126,8.536,15.711c0,3.237-0.821,6.283-2.267,8.939l0.01,0.008
			L39.437,84.384c0.926,0.061,1.859,0.094,2.803,0.094c23.328,0,42.238-18.91,42.238-42.238
			C84.478,36.686,83.404,31.387,81.458,26.529z"/>
	</g>
	<g enable-background="new    ">
		<g enable-background="new    ">
			<path fill="#FFFFFF" d="M122.263,58.79c-4.858,0-8.664-1.533-11.416-4.598c-2.752-3.065-4.128-7.339-4.128-12.824
				c0-5.629,1.428-10.013,4.285-13.151c2.856-3.138,6.766-4.707,11.729-4.707c2.94,0,5.755,0.511,8.444,1.532l-0.844,2.752
				c-2.94-0.98-5.495-1.47-7.663-1.47c-4.17,0-7.33,1.288-9.477,3.862c-2.147,2.576-3.221,6.282-3.221,11.119
				c0,4.587,1.074,8.179,3.221,10.775s5.15,3.894,9.008,3.894c3.085,0,5.953-0.552,8.601-1.657v2.877
				C128.633,58.258,125.787,58.79,122.263,58.79z"/>
			<path fill="#FFFFFF" d="M162.828,58.164v-22.05c0-3.419-0.719-5.906-2.158-7.459c-1.439-1.553-3.67-2.33-6.693-2.33
				c-4.066,0-7.042,1.027-8.929,3.081c-1.887,2.054-2.831,5.385-2.831,9.993v18.766h-3.096V9.499h3.096V24.98l-0.156,4.348h0.219
				c1.271-2.043,2.877-3.523,4.816-4.441c1.939-0.917,4.348-1.376,7.225-1.376c7.714,0,11.572,4.139,11.572,12.417v22.237H162.828z"
				/>
			<path fill="#FFFFFF" d="M190.289,23.51c1.438,0,2.981,0.146,4.629,0.438l-0.594,2.972c-1.418-0.354-2.888-0.532-4.41-0.532
				c-2.898,0-5.275,1.23-7.131,3.69c-1.856,2.46-2.784,5.567-2.784,9.32v18.766h-3.096V24.167h2.627l0.313,6.13h0.219
				c1.397-2.502,2.888-4.258,4.473-5.27C186.118,24.016,188.037,23.51,190.289,23.51z"/>
			<path fill="#FFFFFF" d="M229.946,41.119c0,5.546-1.344,9.878-4.035,12.996c-2.689,3.117-6.4,4.676-11.133,4.676
				c-2.982,0-5.61-0.72-7.882-2.158s-4.014-3.503-5.223-6.192c-1.209-2.69-1.814-5.797-1.814-9.321
				c0-5.546,1.345-9.868,4.035-12.964c2.69-3.097,6.38-4.645,11.072-4.645c4.67,0,8.334,1.569,10.992,4.707
				C228.618,31.355,229.946,35.656,229.946,41.119z M203.112,41.119c0,4.671,1.027,8.315,3.081,10.931
				c2.054,2.617,4.957,3.925,8.711,3.925c3.752,0,6.656-1.308,8.709-3.925c2.055-2.616,3.082-6.26,3.082-10.931
				c0-4.691-1.037-8.33-3.113-10.916c-2.074-2.585-4.988-3.878-8.74-3.878c-3.754,0-6.646,1.288-8.68,3.862
				C204.128,32.763,203.112,36.407,203.112,41.119z"/>
			<path fill="#FFFFFF" d="M281.834,58.164v-22.3c0-3.315-0.646-5.734-1.938-7.256c-1.294-1.521-3.274-2.283-5.943-2.283
				c-3.482,0-6.057,0.959-7.725,2.877c-1.669,1.919-2.502,4.932-2.502,9.039v19.923h-3.159V34.926c0-5.734-2.627-8.601-7.882-8.601
				c-3.565,0-6.161,1.037-7.787,3.112c-1.627,2.075-2.439,5.395-2.439,9.961v18.766h-3.097V24.167h2.564l0.657,4.66h0.188
				c0.938-1.689,2.272-2.997,4.003-3.925c1.73-0.927,3.639-1.392,5.724-1.392c5.358,0,8.799,2.012,10.321,6.036h0.125
				c1.104-1.939,2.591-3.43,4.457-4.473c1.865-1.042,3.987-1.563,6.364-1.563c3.711,0,6.495,0.99,8.351,2.971
				c1.856,1.981,2.784,5.129,2.784,9.445v22.237H281.834z"/>
			<path fill="#FFFFFF" d="M309.639,58.79c-4.942,0-8.794-1.522-11.557-4.566c-2.764-3.044-4.145-7.308-4.145-12.792
				c0-5.421,1.334-9.763,4.004-13.026c2.668-3.263,6.265-4.895,10.79-4.895c4.003,0,7.162,1.397,9.477,4.191
				c2.314,2.794,3.472,6.589,3.472,11.384v2.502H297.19c0.041,4.671,1.131,8.236,3.269,10.696c2.137,2.461,5.196,3.69,9.18,3.69
				c1.938,0,3.644-0.135,5.113-0.406c1.47-0.271,3.331-0.854,5.583-1.751v2.814c-1.919,0.834-3.69,1.402-5.317,1.704
				C313.392,58.639,311.598,58.79,309.639,58.79z M308.731,26.262c-3.273,0-5.901,1.079-7.882,3.237
				c-1.981,2.158-3.139,5.27-3.472,9.336h21.018c0-3.941-0.855-7.021-2.564-9.242C314.121,27.373,311.754,26.262,308.731,26.262z"/>
			<path fill="#FFFFFF" d="M344.636,58.79c-4.858,0-8.663-1.533-11.415-4.598c-2.753-3.065-4.129-7.339-4.129-12.824
				c0-5.629,1.428-10.013,4.285-13.151c2.856-3.138,6.766-4.707,11.729-4.707c2.939,0,5.755,0.511,8.444,1.532l-0.845,2.752
				c-2.939-0.98-5.494-1.47-7.662-1.47c-4.171,0-7.329,1.288-9.477,3.862c-2.148,2.576-3.222,6.282-3.222,11.119
				c0,4.587,1.073,8.179,3.222,10.775c2.147,2.596,5.149,3.894,9.007,3.894c3.086,0,5.953-0.552,8.602-1.657v2.877
				C351.006,58.258,348.159,58.79,344.636,58.79z"/>
			<path fill="#FFFFFF" d="M382.137,58.164l-0.782-5.379h-0.25c-1.71,2.189-3.467,3.737-5.271,4.645
				c-1.804,0.906-3.936,1.36-6.396,1.36c-3.337,0-5.933-0.854-7.788-2.564c-1.856-1.71-2.783-4.076-2.783-7.1
				c0-3.316,1.381-5.891,4.144-7.726c2.763-1.834,6.761-2.804,11.994-2.909l6.475-0.188v-2.252c0-3.231-0.657-5.671-1.971-7.318
				s-3.43-2.471-6.349-2.471c-3.148,0-6.412,0.876-9.79,2.627l-1.157-2.69c3.732-1.751,7.423-2.627,11.072-2.627
				c3.732,0,6.521,0.969,8.366,2.909c1.846,1.939,2.768,4.962,2.768,9.07v22.613H382.137z M369.626,55.975
				c3.628,0,6.489-1.037,8.585-3.111c2.096-2.075,3.144-4.958,3.144-8.648v-3.347l-5.942,0.25
				c-4.775,0.229-8.179,0.975-10.212,2.236c-2.033,1.262-3.05,3.227-3.05,5.896c0,2.126,0.651,3.779,1.955,4.957
				C365.408,55.386,367.249,55.975,369.626,55.975z"/>
			<path fill="#FFFFFF" d="M416.509,49.313c0,3.044-1.157,5.385-3.472,7.021s-5.599,2.455-9.853,2.455
				c-4.545,0-8.152-0.698-10.821-2.096v-3.347c3.42,1.71,7.026,2.564,10.821,2.564c3.357,0,5.906-0.558,7.647-1.673
				s2.611-2.601,2.611-4.457c0-1.709-0.693-3.148-2.08-4.316c-1.387-1.167-3.664-2.314-6.833-3.44
				c-3.399-1.23-5.786-2.288-7.162-3.174c-1.377-0.886-2.414-1.887-3.112-3.002c-0.699-1.115-1.048-2.476-1.048-4.082
				c0-2.543,1.068-4.556,3.206-6.036c2.137-1.48,5.124-2.221,8.96-2.221c3.67,0,7.151,0.688,10.446,2.064l-1.157,2.815
				c-3.336-1.376-6.433-2.064-9.289-2.064c-2.773,0-4.973,0.458-6.599,1.376c-1.627,0.917-2.439,2.189-2.439,3.815
				c0,1.772,0.63,3.19,1.892,4.254s3.727,2.252,7.397,3.565c3.064,1.105,5.296,2.101,6.692,2.987
				c1.397,0.886,2.444,1.892,3.144,3.018C416.159,46.467,416.509,47.791,416.509,49.313z"/>
			<path fill="#FFFFFF" d="M434.243,56.037c1.959,0,3.669-0.166,5.129-0.5v2.502c-1.501,0.501-3.232,0.751-5.192,0.751
				c-3.002,0-5.218-0.803-6.646-2.408c-1.429-1.605-2.143-4.129-2.143-7.569V26.856h-5.035v-1.814l5.035-1.407l1.563-7.694h1.596
				v8.226h9.977v2.689h-9.977v21.519c0,2.606,0.458,4.535,1.376,5.786C430.844,55.412,432.282,56.037,434.243,56.037z"/>
		</g>
		<g>
			<path fill="#FFFFFF" d="M352.872,82.989l-2.481-7.578c-0.159-0.514-0.364-1.268-0.614-2.262h-0.063l-0.22,0.771l-0.469,1.512
				l-2.522,7.557h-1.021l-3.241-11.33h1.104l1.813,6.566c0.424,1.626,0.702,2.821,0.834,3.586h0.063
				c0.41-1.626,0.709-2.707,0.896-3.242l2.335-6.91h0.938l2.22,6.89c0.5,1.633,0.806,2.714,0.917,3.241h0.063
				c0.056-0.451,0.334-1.66,0.834-3.627l1.73-6.504h1.042l-3.074,11.33H352.872z"/>
			<path fill="#FFFFFF" d="M363.826,83.197c-1.646,0-2.931-0.507-3.852-1.521s-1.381-2.436-1.381-4.263
				c0-1.807,0.444-3.254,1.334-4.342c0.89-1.087,2.088-1.631,3.597-1.631c1.334,0,2.387,0.466,3.158,1.396
				c0.771,0.932,1.156,2.196,1.156,3.794v0.834h-8.161c0.014,1.557,0.377,2.745,1.089,3.564c0.713,0.82,1.732,1.23,3.06,1.23
				c0.646,0,1.215-0.046,1.704-0.136c0.49-0.091,1.11-0.285,1.86-0.584v0.938c-0.639,0.277-1.229,0.467-1.771,0.567
				C365.077,83.147,364.479,83.197,363.826,83.197z M363.524,72.357c-1.092,0-1.967,0.359-2.627,1.079
				c-0.66,0.719-1.046,1.756-1.157,3.111h7.005c0-1.313-0.285-2.34-0.855-3.08C365.32,72.728,364.531,72.357,363.524,72.357z"/>
			<path fill="#FFFFFF" d="M375.751,71.44c1.584,0,2.777,0.498,3.58,1.495c0.803,0.998,1.204,2.455,1.204,4.373
				c0,1.883-0.423,3.335-1.267,4.356c-0.845,1.021-2.031,1.532-3.56,1.532c-0.807,0-1.532-0.167-2.179-0.5
				c-0.646-0.334-1.157-0.806-1.532-1.418h-0.094l-0.292,1.71h-0.646V66.771h1.031v4.075c0,0.612-0.014,1.175-0.042,1.688
				l-0.031,0.887h0.073c0.431-0.682,0.95-1.182,1.559-1.501C374.164,71.601,374.896,71.44,375.751,71.44z M375.729,72.378
				c-1.334,0-2.289,0.383-2.866,1.146c-0.577,0.765-0.865,2.026-0.865,3.784v0.177c0,1.71,0.301,2.937,0.901,3.68
				c0.602,0.743,1.538,1.115,2.81,1.115c1.236,0,2.168-0.433,2.793-1.298c0.626-0.865,0.938-2.097,0.938-3.695
				C379.44,74.015,378.203,72.378,375.729,72.378z"/>
			<path fill="#FFFFFF" d="M394.064,83.197c-1.745,0-3.017-0.653-3.815-1.959h-0.073l0.031,0.875
				c0.028,0.515,0.042,1.077,0.042,1.688v4.315h-1.031V71.659h0.875l0.198,1.615h0.063c0.778-1.223,2.022-1.834,3.731-1.834
				c1.528,0,2.694,0.502,3.497,1.506s1.204,2.465,1.204,4.383c0,1.862-0.423,3.306-1.267,4.331
				C396.675,82.686,395.523,83.197,394.064,83.197z M394.043,82.28c1.16,0,2.059-0.431,2.694-1.293
				c0.636-0.861,0.954-2.066,0.954-3.616c0-3.328-1.202-4.993-3.606-4.993c-1.32,0-2.29,0.363-2.908,1.09
				c-0.618,0.726-0.928,1.909-0.928,3.549v0.334c0,1.771,0.297,3.036,0.892,3.794C391.734,81.901,392.702,82.28,394.043,82.28z"/>
			<path fill="#FFFFFF" d="M408.802,82.989l-0.261-1.793h-0.083c-0.57,0.729-1.155,1.245-1.757,1.548
				c-0.601,0.302-1.312,0.453-2.131,0.453c-1.112,0-1.978-0.284-2.596-0.854c-0.618-0.569-0.928-1.358-0.928-2.366
				c0-1.104,0.46-1.963,1.381-2.574s2.253-0.935,3.997-0.97l2.158-0.063v-0.75c0-1.077-0.219-1.891-0.657-2.439
				c-0.438-0.549-1.143-0.823-2.115-0.823c-1.05,0-2.137,0.292-3.263,0.876l-0.386-0.896c1.244-0.584,2.474-0.876,3.689-0.876
				c1.244,0,2.174,0.323,2.788,0.97c0.615,0.646,0.923,1.653,0.923,3.022v7.536H408.802z M404.633,82.26
				c1.209,0,2.162-0.346,2.86-1.037s1.048-1.652,1.048-2.883v-1.115l-1.98,0.084c-1.591,0.076-2.726,0.325-3.403,0.745
				c-0.677,0.421-1.016,1.075-1.016,1.965c0,0.709,0.217,1.26,0.651,1.652C403.227,82.063,403.84,82.26,404.633,82.26z"/>
			<path fill="#FFFFFF" d="M421.133,82.989v-7.349c0-1.14-0.24-1.968-0.72-2.485s-1.223-0.777-2.23-0.777
				c-1.354,0-2.347,0.343-2.976,1.027s-0.943,1.794-0.943,3.33v6.254h-1.031v-11.33h0.875l0.198,1.553h0.063
				c0.736-1.181,2.046-1.771,3.93-1.771c2.57,0,3.856,1.379,3.856,4.138v7.411H421.133z"/>
			<path fill="#FFFFFF" d="M430.398,83.197c-1.646,0-2.931-0.507-3.852-1.521s-1.381-2.436-1.381-4.263
				c0-1.807,0.444-3.254,1.334-4.342c0.89-1.087,2.088-1.631,3.597-1.631c1.334,0,2.387,0.466,3.158,1.396
				c0.771,0.932,1.156,2.196,1.156,3.794v0.834h-8.161c0.014,1.557,0.377,2.745,1.089,3.564c0.713,0.82,1.732,1.23,3.06,1.23
				c0.646,0,1.215-0.046,1.704-0.136c0.49-0.091,1.11-0.285,1.86-0.584v0.938c-0.639,0.277-1.229,0.467-1.771,0.567
				C431.649,83.147,431.052,83.197,430.398,83.197z M430.097,72.357c-1.092,0-1.967,0.359-2.627,1.079
				c-0.66,0.719-1.046,1.756-1.157,3.111h7.005c0-1.313-0.285-2.34-0.855-3.08C431.893,72.728,431.104,72.357,430.097,72.357z"/>
			<path fill="#FFFFFF" d="M438.57,82.989h-1.031V66.771h1.031V82.989z"/>
		</g>
	</g>
</g>
</svg>
