<?xml version="1.0" encoding="utf-8"?>
<!-- Generator: Adobe Illustrator 16.0.0, SVG Export Plug-In . SVG Version: 6.00 Build 0)  -->
<!DOCTYPE svg PUBLIC "-//W3C//DTD SVG 1.1//EN" "http://www.w3.org/Graphics/SVG/1.1/DTD/svg11.dtd">
<svg version="1.1" id="Layer_1" xmlns="http://www.w3.org/2000/svg" xmlns:xlink="http://www.w3.org/1999/xlink" x="0px" y="0px"
	 width="810px" height="320px" viewBox="0 0 810 320" enable-background="new 0 0 810 320" xml:space="preserve">
<g>
	<g id="path3076-3_2_">
		<path fill="#FFC033" d="M158.068,243.841c-46.841,0-84.949-38.107-84.949-84.949s38.108-84.949,84.949-84.949
			s84.949,38.108,84.949,84.949h-15c0-38.57-31.379-69.949-69.949-69.949s-69.949,31.379-69.949,69.949
			c0,38.57,31.379,69.949,69.949,69.949V243.841z"/>
	</g>
	<g opacity="0.33">
		<g id="path3076_2_">
			<path d="M158.068,208.462c-27.333,0-49.569-22.236-49.569-49.57c0-27.333,22.237-49.569,49.569-49.569
				s49.569,22.237,49.569,49.569h-15c0-19.062-15.508-34.569-34.569-34.569s-34.569,15.508-34.569,34.569
				c0,19.062,15.508,34.57,34.569,34.57V208.462z"/>
		</g>
		<g id="path3076-5_2_">
			<path d="M158.068,278.446c-65.923,0-119.555-53.631-119.555-119.554c0-65.923,53.632-119.555,119.555-119.555
				s119.555,53.632,119.555,119.555h-15c0-57.652-46.903-104.555-104.555-104.555S53.514,101.24,53.514,158.892
				s46.903,104.554,104.555,104.554V278.446z"/>
		</g>
	</g>
	<path fill="#FFC033" d="M400.457,212.966v46.861c0,11.877-0.471,19.703-1.654,23.256c-1.721,5.094-4.822,9.264-9.348,12.396
		c-4.542,3.145-10.15,4.739-16.733,4.739c-6.588,0-12.305-1.642-17.026-4.88c-4.68-3.205-7.878-7.641-9.536-13.164
		c-1.143-3.979-1.703-11.498-1.703-22.348v-46.861h-16v48.287c0,13.947,1.727,24.59,4.929,31.633
		c3.242,7.135,8.276,12.773,14.858,16.76c6.551,3.971,14.82,5.984,24.526,5.984c9.713,0,17.942-2.015,24.434-5.988
		c6.522-3.986,11.329-9.575,14.565-16.611c3.205-6.955,4.688-17.347,4.688-30.887v-49.178H400.457z"/>
	<g opacity="0.67">
		<g id="path3076-5-7_2_">
			<path d="M158.068,313.417c-85.205,0-154.524-69.319-154.524-154.525c0-85.205,69.319-154.524,154.524-154.524
				s154.524,69.319,154.524,154.524h-15c0-76.934-62.59-139.524-139.524-139.524S18.544,81.958,18.544,158.892
				c0,76.935,62.59,139.525,139.524,139.525V313.417z"/>
		</g>
		<g>
			<polygon points="234.457,312.966 312.457,312.966 312.457,296.966 251.457,296.966 251.457,248.966 312.457,248.966 
				312.457,232.966 251.457,232.966 251.457,194.966 313.457,194.966 313.457,178.966 234.457,178.966 			"/>
			<path d="M476.025,210.438c-4.877,0-9.623,1.484-14.092,4.411c-3.27,2.141-6.477,5.118-9.477,8.886v-10.769h-16v100h16V278.71
				c0-16.578,0.766-27.695,2.263-33.041c1.925-6.847,4.728-11.93,8.327-15.107c3.527-3.125,7.205-4.709,10.928-4.709
				c1.541,0,3.541,0.524,5.943,1.559l1.307,0.563l8.154-13.188l-1.503-0.842C483.721,211.617,479.732,210.438,476.025,210.438z"/>
			<path d="M594.617,264.15c-0.123-13.554-3.844-25.116-11.053-34.216c-10.148-12.887-23.9-19.459-40.876-19.459
				c-16.507,0-29.871,6.368-39.718,18.964c-7.746,9.87-11.674,21.261-11.674,33.872c0,13.404,4.633,25.584,13.77,36.209
				c9.201,10.692,22.1,16.111,38.337,16.111c7.292,0,13.938-1.131,19.757-3.36c5.816-2.233,11.123-5.536,15.771-9.815
				c4.641-4.266,8.779-9.937,12.299-16.852l0.74-1.453l-13.331-7.003l-0.803,1.335c-3.698,6.152-7.158,10.645-10.284,13.355
				c-3.102,2.697-6.934,4.895-11.391,6.528c-4.463,1.642-9.116,2.475-13.829,2.475c-9.711,0-17.983-3.313-24.587-10.146
				c-6.275-6.495-9.724-14.73-10.264-24.73h87.15L594.617,264.15z M509.246,251.966c2.43-8,5.856-13.475,10.201-17.349
				c6.488-5.808,14.369-8.848,23.421-8.848c5.495,0,10.812,1.128,15.799,3.446c4.979,2.322,9.026,5.568,12.026,9.324
				c2.688,3.361,4.84,7.426,6.406,13.426H509.246z"/>
			<polygon points="696.252,212.966 672.898,212.966 630.457,250.067 630.457,175.966 614.457,175.966 614.457,312.966 
				630.457,312.966 630.457,271.545 676.77,312.966 699.25,312.966 641.06,260.763 			"/>
			<path d="M790.457,212.966v14.635c-4-5.088-9.23-9.079-14.59-11.895c-6.658-3.496-14.203-5.269-22.389-5.269
				c-14.168,0-26.467,5.169-36.535,15.365c-10.07,10.188-15.182,22.624-15.182,36.964c0,14.633,5.057,27.231,15.031,37.447
				c9.982,10.229,22.199,15.416,36.314,15.416c7.938,0,15.397-1.676,22.098-4.98c5.492-2.709,10.252-6.552,15.252-11.45v13.767h16
				v-100H790.457z M791.178,263.524c0,7.035-1.59,13.438-4.725,19.033c-3.126,5.573-7.658,10.06-13.471,13.334
				c-5.832,3.285-12.085,4.95-18.583,4.95c-6.438,0-12.548-1.675-18.161-4.979c-5.619-3.305-10.16-7.991-13.498-13.932
				c-3.342-5.946-5.037-12.26-5.037-18.764c0-6.559,1.68-12.872,4.992-18.762c3.311-5.882,7.82-10.506,13.404-13.746
				c5.59-3.248,11.775-4.895,18.386-4.895c10.286,0,19.063,3.635,26.087,10.805C787.609,243.743,791.178,252.813,791.178,263.524z"
				/>
		</g>
	</g>
	<g>
		<g>
			<path fill="#FFC033" d="M178.284,313.396v-21.008h7.132v6.924h30.88v7.34h-30.88v6.744H178.284z"/>
		</g>
		<g>
			<path fill="#FFC033" d="M178.284,287.399v-20.75h7.081v13.566h6.874v-13.566h6.951v13.566h10v-13.566h7.106v20.75H178.284z"/>
		</g>
		<g>
			<path fill="#FFC033" d="M178.284,248.308v-7.338l38.013-14.621v7.52l-7.83,2.975v15.512l7.83,3.092v7.52L178.284,248.308z
				 M188.362,244.593l13.05,5.1v-10.17L188.362,244.593z"/>
		</g>
		<g>
			<path fill="#FFC033" d="M178.284,217.067v-7.05l26.514-8.813l-26.514-8.892v-7.046l38.013-6.376v6.997l-24.007,4.075
				l24.007,8.075v6.378l-24.007,8.004l24.007,4.172v7.055L178.284,217.067z"/>
		</g>
	</g>
</g>
</svg>
