<?xml version="1.0" encoding="utf-8"?>
<!-- Generator: Adobe Illustrator 16.0.0, SVG Export Plug-In . SVG Version: 6.00 Build 0)  -->
<!DOCTYPE svg PUBLIC "-//W3C//DTD SVG 1.0//EN" "http://www.w3.org/TR/2001/REC-SVG-20010904/DTD/svg10.dtd">
<svg version="1.0" id="Layer_1" xmlns="http://www.w3.org/2000/svg" xmlns:xlink="http://www.w3.org/1999/xlink" x="0px" y="0px"
	 width="700px" height="315px" viewBox="0 0 700 315" enable-background="new 0 0 700 315" xml:space="preserve">
<g>
	<g id="path3076_1_">
		<path fill="#484848" d="M155.651,205.963c-27.332,0-49.569-22.236-49.569-49.569s22.237-49.57,49.569-49.57
			c27.333,0,49.569,22.237,49.569,49.57h-15c0-19.063-15.508-34.57-34.569-34.57s-34.569,15.508-34.569,34.57
			c0,19.062,15.508,34.569,34.569,34.569V205.963z"/>
	</g>
	<g id="path3076-3_1_">
		<path fill="#FFC033" d="M155.651,241.342c-46.841,0-84.949-38.107-84.949-84.948s38.108-84.949,84.949-84.949
			c46.842,0,84.95,38.108,84.95,84.949h-15c0-38.57-31.38-69.949-69.95-69.949s-69.949,31.379-69.949,69.949
			c0,38.569,31.379,69.948,69.949,69.948V241.342z"/>
	</g>
	<g id="path3076-5_1_">
		<path fill="#484848" d="M155.651,275.947c-65.923,0-119.555-53.632-119.555-119.554c0-65.923,53.632-119.555,119.555-119.555
			c65.924,0,119.556,53.632,119.556,119.555h-15c0-57.652-46.903-104.555-104.556-104.555C98,51.839,51.097,98.741,51.097,156.394
			c0,57.651,46.903,104.554,104.555,104.554V275.947z"/>
	</g>
	<g id="path3076-5-7_1_">
		<path fill="#9C9C9C" d="M155.651,310.918c-85.205,0-154.524-69.319-154.524-154.524S70.446,1.868,155.651,1.868
			s154.524,69.32,154.524,154.525h-15c0-76.935-62.59-139.525-139.524-139.525c-76.934,0-139.524,62.591-139.524,139.525
			c0,76.934,62.591,139.524,139.524,139.524V310.918z"/>
	</g>
	<g>
		<polygon fill="#9C9C9C" points="260.873,205.548 260.873,191.548 189.873,191.548 189.873,310.548 259.873,310.548 
			259.873,296.548 204.873,296.548 204.873,253.548 259.873,253.548 259.873,238.548 204.873,238.548 204.873,205.548 		"/>
		<path fill="#FFC033" d="M337.873,221.548v41.76c0,10.545-0.43,17.487-1.477,20.629c-1.516,4.492-4.259,8.172-8.253,10.938
			c-4.008,2.775-8.966,4.182-14.784,4.182c-5.821,0-10.874-1.448-15.043-4.307c-4.13-2.829-6.713-6.743-8.178-11.61
			c-1.01-3.528-1.266-10.201-1.266-19.831v-41.76h-15v43.029c0,12.435,1.504,21.927,4.362,28.214
			c2.9,6.381,7.384,11.425,13.272,14.99c5.859,3.55,13.237,5.351,21.901,5.351c8.668,0,16.016-1.802,21.826-5.354
			c5.831-3.565,10.343-8.564,13.239-14.859c2.861-6.211,4.398-15.48,4.398-27.551v-43.82H337.873z"/>
		<path fill="#9C9C9C" d="M415.884,222.333c-3.724-2.085-7.3-3.143-10.631-3.143c-4.375,0-8.429,1.33-12.434,3.953
			c-2.809,1.838-5.946,4.365-7.946,7.543v-9.139h-15v89h15v-30.441c0-14.733,0.477-24.607,1.804-29.346
			c1.701-6.054,4.075-10.546,7.251-13.353c3.105-2.748,6.287-4.142,9.551-4.142c1.347,0,3.076,0.461,5.188,1.372l1.296,0.563
			l7.43-12.027L415.884,222.333z"/>
		<path fill="#9C9C9C" d="M495.666,279.811c-3.281,5.457-6.346,9.439-9.11,11.837c-2.745,2.385-6.135,4.327-10.078,5.773
			c-3.947,1.453-8.065,2.189-12.24,2.189c-8.586,0-15.9-3.129-21.738-9.168c-5.512-5.706-8.559-12.895-9.069-21.895h77.518
			l-0.015-1.598c-0.11-12.098-3.433-22.32-9.871-30.447c-9.064-11.51-21.348-17.329-36.507-17.329
			c-14.742,0-26.678,5.713-35.475,16.961c-6.917,8.813-10.424,18.997-10.424,30.26c0,11.972,4.137,22.853,12.294,32.336
			c8.222,9.555,19.741,14.4,34.24,14.4c6.515,0,12.45-1.009,17.643-3.001c5.193-1.994,9.934-4.943,14.088-8.766
			c4.144-3.812,7.838-8.872,10.979-15.044l0.738-1.451l-12.169-6.393L495.666,279.811z M435.056,255.548
			c2.148-6,5.151-11.439,8.945-14.822c5.739-5.137,12.709-7.678,20.714-7.678c4.861,0,9.564,1.07,13.978,3.123
			c4.402,2.051,7.98,4.666,10.633,7.984c2.339,2.927,4.218,7.393,5.599,11.393H435.056z"/>
		<polygon fill="#9C9C9C" points="552.34,264.089 601.648,221.548 580.322,221.548 542.873,254.225 542.873,188.548 
			527.873,188.548 527.873,310.548 542.873,310.548 542.873,274.139 583.76,310.548 604.305,310.548 		"/>
		<path fill="#9C9C9C" d="M684.873,221.548v12.6c-4-4.368-8.102-7.806-12.757-10.251c-5.945-3.122-12.708-4.706-20.021-4.706
			c-12.656,0-23.654,4.617-32.646,13.721c-8.992,9.1-13.563,20.207-13.563,33.013c0,13.066,4.513,24.316,13.421,33.438
			c8.917,9.137,19.829,13.77,32.435,13.77c7.088,0,13.795-1.497,19.78-4.45c4.784-2.359,9.351-5.678,13.351-9.893v11.759h14v-89
			H684.873z M685.424,266.596c0,6.227-1.406,11.895-4.18,16.845c-2.763,4.926-6.771,8.893-11.912,11.791
			c-5.161,2.906-10.693,4.379-16.443,4.379c-5.692,0-11.097-1.481-16.063-4.402c-4.971-2.925-8.989-7.071-11.941-12.326
			c-2.957-5.263-4.456-10.849-4.456-16.602c0-5.804,1.485-11.39,4.416-16.603c2.929-5.203,6.918-9.295,11.858-12.161
			c4.942-2.872,10.414-4.328,16.263-4.328c9.098,0,16.862,3.214,23.077,9.555C682.268,249.094,685.424,257.119,685.424,266.596z"/>
	</g>
</g>
</svg>
