<?xml version="1.0" encoding="utf-8"?>
<!-- Generator: Adobe Illustrator 16.0.0, SVG Export Plug-In . SVG Version: 6.00 Build 0)  -->
<!DOCTYPE svg PUBLIC "-//W3C//DTD SVG 1.0//EN" "http://www.w3.org/TR/2001/REC-SVG-20010904/DTD/svg10.dtd">
<svg version="1.0" id="Layer_1" xmlns="http://www.w3.org/2000/svg" xmlns:xlink="http://www.w3.org/1999/xlink" x="0px" y="0px"
	 width="966.087px" height="144.079px" viewBox="0 0 966.087 144.079" enable-background="new 0 0 966.087 144.079"
	 xml:space="preserve">
<g>
	<g>
		
			<path fill="#484848" stroke="#484848" stroke-width="3" stroke-linecap="round" stroke-linejoin="round" stroke-miterlimit="10" d="
			M73.91,74.457H7.384v61.787h75.821v4.921H2.463V8.478h80.742v4.921H7.384v56.137H73.91V74.457z"/>
		
			<path fill="#FFC033" stroke="#FFC033" stroke-width="3" stroke-linecap="round" stroke-linejoin="round" stroke-miterlimit="10" d="
			M170.874,123.485c-3.099,6.259-7.519,11.088-13.26,14.49c-5.741,3.401-12.713,5.104-20.915,5.104c-10.146,0-18.09-3.6-23.831-10.8
			c-5.741-7.199-8.611-18.362-8.611-33.49V42.561h4.921v56.41c0,13.367,2.46,23.239,7.382,29.618
			c4.921,6.379,11.573,9.568,19.957,9.568c10.267,0,18.15-2.52,23.649-7.563c5.497-5.042,9.006-11.725,10.525-20.049V42.561h5.013
			v98.604h-4.102L170.874,123.485z"/>
		
			<path fill="#484848" stroke="#484848" stroke-width="3" stroke-linecap="round" stroke-linejoin="round" stroke-miterlimit="10" d="
			M250.25,46.114l-6.379-0.547c-8.811,0-15.964,2.841-21.462,8.521c-5.499,5.682-9.067,13.168-10.708,22.464v64.612h-4.921V42.561
			h4.01l0.911,17.133v3.372c2.734-7.047,6.804-12.531,12.212-16.449c5.406-3.919,12.06-5.878,19.958-5.878
			c1.396,0,2.688,0.106,3.873,0.318c1.185,0.214,2.201,0.441,3.053,0.684L250.25,46.114z"/>
		
			<path fill="#484848" stroke="#484848" stroke-width="3" stroke-linecap="round" stroke-linejoin="round" stroke-miterlimit="10" d="
			M300.646,143.079c-11.241,0-20.946-4.541-29.117-13.624c-8.172-9.082-12.257-20.368-12.257-33.855v-5.833
			c0-14.155,3.948-25.865,11.847-35.131c7.897-9.265,17.648-13.897,29.254-13.897c11.117,0,20.186,3.645,27.202,10.936
			c7.018,7.29,10.526,17.073,10.526,29.345v7.563h-73.908v1.185V95.6c0,11.908,3.493,21.978,10.48,30.21
			c6.985,8.233,15.643,12.348,25.973,12.348c7.35,0,13.501-1.002,18.454-3.007c4.95-2.005,9.188-5.013,12.713-9.022l2.643,3.828
			c-3.889,4.314-8.612,7.579-14.171,9.797C314.726,141.97,308.179,143.079,300.646,143.079z M300.373,45.659
			c-9.783,0-17.924,3.569-24.424,10.708c-6.502,7.14-10.177,16.055-11.026,26.747l0.272,0.547h67.984v-3.008
			c0-10.024-3.038-18.363-9.113-25.016S310.093,45.659,300.373,45.659z"/>
		
			<path fill="#484848" stroke="#484848" stroke-width="3" stroke-linecap="round" stroke-linejoin="round" stroke-miterlimit="10" d="
			M379.475,90.77h-13.487v50.396h-4.921V-1h4.921v86.848h11.574l44.836-43.287h5.742l0.182,0.547L383.12,87.488l48.664,53.221
			l-0.182,0.456h-5.741L379.475,90.77z"/>
		
			<path fill="#484848" stroke="#484848" stroke-width="3" stroke-linecap="round" stroke-linejoin="round" stroke-miterlimit="10" d="
			M511.251,122.938c-3.403,5.955-8.475,10.8-15.219,14.536c-6.743,3.736-14.916,5.604-24.515,5.604
			c-9.174,0-16.373-2.507-21.598-7.519c-5.226-5.013-7.838-11.771-7.838-20.277c0-8.262,3.903-15.188,11.711-20.777
			c7.806-5.589,17.572-8.385,29.299-8.385h28.159V71.723c0-8.202-2.628-14.596-7.883-19.184c-5.256-4.586-12.652-6.88-22.19-6.88
			c-8.931,0-16.116,2.157-21.553,6.47c-5.438,4.315-8.156,9.874-8.156,16.678l-4.101-0.183l-0.183-0.455
			c-0.364-7.655,2.611-14.14,8.931-19.457c6.318-5.315,14.673-7.974,25.062-7.974c10.571,0,19.047,2.674,25.426,8.02
			c6.379,5.347,9.569,13.063,9.569,23.147v49.393c0,3.464,0.196,6.835,0.592,10.116c0.395,3.28,1.048,6.531,1.96,9.751h-5.469
			c-0.79-4.313-1.321-7.548-1.595-9.705c-0.273-2.156-0.41-4.48-0.41-6.972V122.938z M471.518,138.249
			c9.781,0,18.059-2.156,24.834-6.471c6.773-4.313,11.74-10.48,14.899-18.5V91.134h-27.886c-10.207,0-18.819,2.355-25.836,7.063
			c-7.018,4.709-10.525,10.525-10.525,17.452c0,6.622,2.232,12.045,6.697,16.267C458.167,136.139,464.104,138.249,471.518,138.249z"
			/>
		
			<path fill="#FFFFFF" stroke="#FFFFFF" stroke-width="3" stroke-linecap="round" stroke-linejoin="round" stroke-miterlimit="10" d="
			M599.558,78.922v62.334h-4.921V8.568h42.285c13.974,0,24.727,3.023,32.261,9.067c7.532,6.046,11.301,14.87,11.301,26.474
			c0,7.474-2.386,14.263-7.154,20.368c-4.771,6.106-11.286,10.07-19.548,11.893c9.538,1.641,16.372,5.135,20.505,10.48
			c4.131,5.347,6.197,12.182,6.197,20.505v12.484c0,4.133,0.501,7.838,1.503,11.118c1.003,3.281,2.657,5.955,4.967,8.02v2.278h-4.83
			c-2.187-2.49-3.827-5.573-4.921-9.25c-1.094-3.675-1.641-7.791-1.641-12.348v-12.121c0-8.99-3.084-16.008-9.25-21.051
			c-6.167-5.042-14.961-7.564-26.382-7.564H599.558z M599.558,74.001h36.453c13.547,0,23.526-2.855,29.937-8.566
			c6.409-5.71,9.614-12.818,9.614-21.325c0-9.901-3.234-17.481-9.705-22.737c-6.471-5.254-16.116-7.883-28.935-7.883h-37.364V74.001
			z"/>
		
			<path fill="#FFFFFF" stroke="#FFFFFF" stroke-width="3" stroke-linecap="round" stroke-linejoin="round" stroke-miterlimit="10" d="
			M811.166,84.755c0,17.923-4.436,32.124-13.306,42.604c-8.871,10.48-21.083,15.721-36.635,15.721
			c-15.615,0-27.872-5.24-36.771-15.721c-8.901-10.479-13.352-24.681-13.352-42.604V64.888c0-17.861,4.42-32.047,13.26-42.559
			c8.84-10.51,21.066-15.766,36.681-15.766c15.553,0,27.795,5.256,36.727,15.766c8.931,10.512,13.396,24.697,13.396,42.559V84.755z
			 M806.244,64.705c0-16.281-3.918-29.222-11.756-38.821c-7.837-9.6-18.986-14.399-33.445-14.399
			c-14.398,0-25.487,4.8-33.263,14.399c-7.777,9.6-11.665,22.54-11.665,38.821v20.05c0,16.403,3.903,29.405,11.71,39.004
			c7.807,9.601,18.94,14.398,33.4,14.398c14.458,0,25.576-4.784,33.354-14.353c7.775-9.569,11.664-22.585,11.664-39.05V64.705z"/>
		
			<path fill="#FFFFFF" stroke="#FFFFFF" stroke-width="3" stroke-linecap="round" stroke-linejoin="round" stroke-miterlimit="10" d="
			M848.529,8.478l54.314,124.851h0.547L957.888,8.478h7.199v132.688h-4.921V17.135l-0.547-0.183l-54.497,124.213h-3.918
			L846.98,17.591l-0.547,0.182v123.393h-4.921V8.478H848.529z"/>
	</g>
</g>
</svg>
