<?xml version="1.0" encoding="utf-8"?>
<!-- Generator: Adobe Illustrator 16.0.0, SVG Export Plug-In . SVG Version: 6.00 Build 0)  -->
<!DOCTYPE svg PUBLIC "-//W3C//DTD SVG 1.0//EN" "http://www.w3.org/TR/2001/REC-SVG-20010904/DTD/svg10.dtd">
<svg version="1.0" id="Layer_1" xmlns="http://www.w3.org/2000/svg" xmlns:xlink="http://www.w3.org/1999/xlink" x="0px" y="0px"
	 width="28px" height="28px" viewBox="0 0 28 28" enable-background="new 0 0 28 28" xml:space="preserve">
<g>
	<g>
		<path fill="#FFFFFF" d="M14,4C8.486,4,4,8.486,4,14c0,5.514,4.486,10,10,10s10-4.486,10-10C24,8.486,19.514,4,14,4z M15.2,20.734
			h-2.385v-8.289H15.2V20.734z M14,10.796c-1.033,0-1.7-0.587-1.7-1.495c0-0.906,0.667-1.491,1.7-1.491
			c0.52,0,0.952,0.142,1.252,0.411c0.292,0.261,0.445,0.634,0.445,1.081C15.697,10.224,15.047,10.796,14,10.796z M0,0v28h28V0H0z
			 M14,26.75C6.97,26.75,1.25,21.03,1.25,14S6.97,1.25,14,1.25S26.75,6.97,26.75,14S21.03,26.75,14,26.75z"/>
	</g>
</g>
</svg>
