<?xml version="1.0" encoding="utf-8"?>
<!-- Generator: Adobe Illustrator 16.0.0, SVG Export Plug-In . SVG Version: 6.00 Build 0)  -->
<!DOCTYPE svg PUBLIC "-//W3C//DTD SVG 1.0//EN" "http://www.w3.org/TR/2001/REC-SVG-20010904/DTD/svg10.dtd">
<svg version="1.0" id="Layer_1" xmlns="http://www.w3.org/2000/svg" xmlns:xlink="http://www.w3.org/1999/xlink" x="0px" y="0px"
	 width="400px" height="85px" viewBox="0 0 400 85" enable-background="new 0 0 400 85" xml:space="preserve">
<g>
	<g>
		<path fill="#FFFFFF" d="M113.24,56.195c-4.353,0-7.76-1.373-10.226-4.118c-2.465-2.745-3.697-6.574-3.697-11.486
			c0-5.042,1.278-8.969,3.838-11.779c2.558-2.811,6.06-4.216,10.505-4.216c2.633,0,5.154,0.457,7.563,1.372l-0.756,2.466
			c-2.634-0.878-4.922-1.317-6.863-1.317c-3.736,0-6.565,1.153-8.488,3.46c-1.924,2.307-2.886,5.627-2.886,9.959
			c0,4.109,0.962,7.326,2.886,9.651c1.923,2.324,4.612,3.487,8.067,3.487c2.764,0,5.332-0.495,7.704-1.484v2.577
			C118.945,55.719,116.395,56.195,113.24,56.195z"/>
		<path fill="#FFFFFF" d="M149.573,55.635v-19.75c0-3.063-0.645-5.29-1.933-6.682c-1.289-1.391-3.288-2.087-5.995-2.087
			c-3.642,0-6.309,0.921-7.998,2.76c-1.69,1.84-2.535,4.823-2.535,8.95v16.809h-2.773v-43.59h2.773v13.867l-0.141,3.894h0.196
			c1.139-1.83,2.577-3.155,4.314-3.978c1.736-0.822,3.894-1.232,6.471-1.232c6.91,0,10.365,3.707,10.365,11.121v19.918H149.573z"/>
		<path fill="#FFFFFF" d="M174.168,24.596c1.289,0,2.671,0.131,4.146,0.392l-0.532,2.661c-1.271-0.317-2.587-0.476-3.95-0.476
			c-2.596,0-4.725,1.102-6.387,3.306c-1.663,2.204-2.493,4.986-2.493,8.348v16.809h-2.773V25.184h2.353l0.28,5.491h0.196
			c1.251-2.241,2.587-3.814,4.006-4.721S172.152,24.596,174.168,24.596z"/>
		<path fill="#FFFFFF" d="M209.691,40.367c0,4.968-1.205,8.848-3.614,11.64s-5.733,4.188-9.973,4.188
			c-2.671,0-5.024-0.645-7.06-1.934c-2.036-1.288-3.596-3.137-4.679-5.547c-1.083-2.409-1.624-5.191-1.624-8.348
			c0-4.968,1.204-8.839,3.613-11.612c2.409-2.772,5.715-4.159,9.917-4.159c4.184,0,7.466,1.405,9.847,4.216
			S209.691,35.475,209.691,40.367z M185.655,40.367c0,4.184,0.92,7.447,2.76,9.791c1.839,2.344,4.439,3.516,7.802,3.516
			c3.361,0,5.962-1.172,7.802-3.516c1.839-2.344,2.759-5.607,2.759-9.791c0-4.202-0.929-7.461-2.787-9.777
			c-1.858-2.315-4.468-3.474-7.83-3.474c-3.361,0-5.953,1.153-7.773,3.46C186.565,32.883,185.655,36.146,185.655,40.367z"/>
		<path fill="#FFFFFF" d="M256.165,55.635V35.661c0-2.97-0.579-5.136-1.736-6.5c-1.158-1.362-2.933-2.045-5.322-2.045
			c-3.119,0-5.426,0.859-6.92,2.577c-1.494,1.719-2.241,4.418-2.241,8.097v17.845h-2.829V34.82c0-5.136-2.354-7.704-7.06-7.704
			c-3.193,0-5.519,0.93-6.976,2.788c-1.456,1.858-2.185,4.832-2.185,8.922v16.809h-2.773V25.184h2.297l0.589,4.174h0.168
			c0.84-1.513,2.035-2.685,3.585-3.516c1.551-0.831,3.259-1.246,5.127-1.246c4.8,0,7.881,1.802,9.244,5.406h0.112
			c0.99-1.737,2.32-3.072,3.992-4.006c1.671-0.934,3.571-1.4,5.7-1.4c3.324,0,5.817,0.887,7.48,2.661
			c1.662,1.774,2.493,4.594,2.493,8.46v19.918H256.165z"/>
		<path fill="#FFFFFF" d="M281.069,56.195c-4.426,0-7.877-1.363-10.351-4.09c-2.476-2.727-3.712-6.546-3.712-11.458
			c0-4.855,1.194-8.745,3.585-11.668s5.612-4.384,9.665-4.384c3.586,0,6.415,1.251,8.488,3.754
			c2.073,2.502,3.109,5.901,3.109,10.196v2.241h-21.935c0.037,4.184,1.013,7.378,2.928,9.581c1.914,2.204,4.654,3.306,8.222,3.306
			c1.737,0,3.264-0.121,4.58-0.364c1.316-0.242,2.983-0.766,5.001-1.568v2.521c-1.719,0.747-3.306,1.257-4.763,1.527
			S282.824,56.195,281.069,56.195z M280.256,27.061c-2.932,0-5.285,0.967-7.06,2.899s-2.811,4.721-3.109,8.362h18.825
			c0-3.53-0.766-6.289-2.297-8.278S282.964,27.061,280.256,27.061z"/>
		<path fill="#FFFFFF" d="M312.417,56.195c-4.353,0-7.76-1.373-10.226-4.118c-2.465-2.745-3.697-6.574-3.697-11.486
			c0-5.042,1.278-8.969,3.838-11.779c2.558-2.811,6.06-4.216,10.505-4.216c2.633,0,5.154,0.457,7.563,1.372l-0.756,2.466
			c-2.634-0.878-4.922-1.317-6.863-1.317c-3.736,0-6.565,1.153-8.488,3.46c-1.924,2.307-2.886,5.627-2.886,9.959
			c0,4.109,0.962,7.326,2.886,9.651c1.923,2.324,4.612,3.487,8.067,3.487c2.764,0,5.332-0.495,7.704-1.484v2.577
			C318.123,55.719,315.573,56.195,312.417,56.195z"/>
		<path fill="#FFFFFF" d="M346.005,55.635l-0.701-4.818h-0.224c-1.531,1.961-3.105,3.348-4.721,4.16s-3.525,1.219-5.729,1.219
			c-2.988,0-5.313-0.766-6.976-2.298c-1.662-1.53-2.493-3.65-2.493-6.358c0-2.97,1.237-5.276,3.712-6.92
			c2.475-1.643,6.056-2.512,10.743-2.605l5.799-0.168v-2.017c0-2.895-0.588-5.08-1.765-6.556c-1.177-1.475-3.072-2.213-5.687-2.213
			c-2.82,0-5.743,0.784-8.769,2.354l-1.036-2.409c3.343-1.569,6.648-2.354,9.916-2.354c3.344,0,5.842,0.868,7.494,2.605
			c1.652,1.736,2.479,4.444,2.479,8.124v20.254H346.005z M334.799,53.674c3.25,0,5.813-0.929,7.69-2.787
			c1.876-1.858,2.814-4.44,2.814-7.746v-2.998l-5.322,0.225c-4.276,0.206-7.325,0.873-9.146,2.003
			c-1.82,1.13-2.731,2.891-2.731,5.28c0,1.905,0.584,3.386,1.751,4.44C331.022,53.146,332.67,53.674,334.799,53.674z"/>
		<path fill="#FFFFFF" d="M376.792,47.707c0,2.727-1.036,4.823-3.109,6.289s-5.015,2.199-8.824,2.199
			c-4.071,0-7.303-0.626-9.692-1.877V51.32c3.063,1.532,6.293,2.298,9.692,2.298c3.007,0,5.29-0.5,6.85-1.499
			c1.559-0.999,2.339-2.33,2.339-3.992c0-1.531-0.621-2.819-1.863-3.866c-1.242-1.045-3.282-2.072-6.121-3.081
			c-3.044-1.102-5.182-2.05-6.415-2.844c-1.232-0.793-2.161-1.689-2.787-2.689c-0.626-0.999-0.938-2.217-0.938-3.655
			c0-2.278,0.957-4.081,2.871-5.407c1.915-1.325,4.59-1.988,8.026-1.988c3.287,0,6.405,0.616,9.356,1.849l-1.036,2.521
			c-2.988-1.233-5.762-1.85-8.32-1.85c-2.484,0-4.454,0.411-5.911,1.233c-1.456,0.821-2.185,1.961-2.185,3.417
			c0,1.588,0.564,2.857,1.694,3.811c1.13,0.952,3.338,2.017,6.625,3.193c2.746,0.99,4.744,1.882,5.995,2.675
			c1.251,0.794,2.189,1.695,2.815,2.704C376.479,45.157,376.792,46.344,376.792,47.707z"/>
		<path fill="#FFFFFF" d="M392.676,53.729c1.755,0,3.286-0.149,4.594-0.448v2.241c-1.345,0.448-2.895,0.673-4.65,0.673
			c-2.688,0-4.674-0.719-5.952-2.157c-1.28-1.438-1.919-3.698-1.919-6.779V27.593h-4.511v-1.625l4.511-1.261l1.4-6.892h1.429v7.368
			h8.937v2.409h-8.937v19.273c0,2.335,0.41,4.063,1.232,5.183C389.631,53.17,390.92,53.729,392.676,53.729z"/>
	</g>
	<g>
		<path fill="#FFFFFF" d="M319.794,77.87l-2.222-6.787c-0.143-0.461-0.326-1.136-0.551-2.026h-0.056l-0.196,0.691l-0.42,1.354
			l-2.26,6.769h-0.915l-2.903-10.148h0.99l1.624,5.882c0.38,1.456,0.629,2.527,0.747,3.212h0.056
			c0.367-1.457,0.635-2.425,0.803-2.903l2.092-6.19h0.84l1.989,6.171c0.447,1.463,0.722,2.431,0.821,2.904h0.056
			c0.05-0.405,0.299-1.488,0.747-3.249l1.55-5.826h0.934l-2.754,10.148H319.794z"/>
		<path fill="#FFFFFF" d="M329.607,78.057c-1.476,0-2.625-0.454-3.45-1.363c-0.824-0.908-1.236-2.181-1.236-3.818
			c0-1.618,0.397-2.914,1.194-3.888c0.797-0.975,1.87-1.461,3.221-1.461c1.195,0,2.139,0.417,2.829,1.251
			c0.691,0.834,1.036,1.967,1.036,3.397v0.747h-7.31c0.013,1.395,0.338,2.459,0.976,3.193s1.551,1.102,2.74,1.102
			c0.578,0,1.087-0.041,1.526-0.121c0.438-0.081,0.994-0.256,1.666-0.523v0.841c-0.572,0.249-1.102,0.418-1.587,0.509
			C330.727,78.012,330.192,78.057,329.607,78.057z M329.335,68.348c-0.977,0-1.761,0.322-2.353,0.966
			c-0.591,0.645-0.937,1.573-1.036,2.787h6.273c0-1.177-0.255-2.096-0.765-2.759C330.945,68.679,330.238,68.348,329.335,68.348z"/>
		<path fill="#FFFFFF" d="M340.288,67.526c1.419,0,2.488,0.446,3.207,1.339c0.719,0.894,1.078,2.199,1.078,3.917
			c0,1.687-0.378,2.987-1.135,3.902c-0.756,0.915-1.818,1.372-3.188,1.372c-0.723,0-1.373-0.149-1.951-0.448
			c-0.579-0.299-1.037-0.722-1.373-1.27h-0.084l-0.261,1.531h-0.579V63.344h0.924v3.65c0,0.548-0.013,1.052-0.037,1.512
			l-0.028,0.794h0.065c0.386-0.61,0.852-1.058,1.396-1.345C338.867,67.669,339.522,67.526,340.288,67.526z M340.269,68.366
			c-1.195,0-2.051,0.343-2.567,1.027s-0.775,1.813-0.775,3.389v0.158c0,1.531,0.27,2.63,0.808,3.296s1.377,0.999,2.517,0.999
			c1.107,0,1.941-0.388,2.502-1.162c0.56-0.775,0.84-1.878,0.84-3.31C343.592,69.832,342.485,68.366,340.269,68.366z"/>
		<path fill="#FFFFFF" d="M356.69,78.057c-1.563,0-2.701-0.585-3.417-1.755h-0.065l0.028,0.784c0.024,0.461,0.037,0.965,0.037,1.513
			v3.865h-0.924V67.722h0.784l0.178,1.447h0.056c0.697-1.096,1.812-1.643,3.342-1.643c1.369,0,2.414,0.449,3.133,1.349
			s1.078,2.208,1.078,3.926c0,1.668-0.378,2.961-1.135,3.879C359.029,77.598,357.998,78.057,356.69,78.057z M356.671,77.235
			c1.039,0,1.844-0.386,2.413-1.158c0.57-0.771,0.854-1.852,0.854-3.239c0-2.981-1.077-4.472-3.23-4.472
			c-1.183,0-2.051,0.325-2.604,0.976s-0.831,1.71-0.831,3.179v0.299c0,1.587,0.267,2.72,0.799,3.398S355.47,77.235,356.671,77.235z"
			/>
		<path fill="#FFFFFF" d="M369.89,77.87l-0.233-1.605h-0.074c-0.511,0.653-1.035,1.115-1.573,1.386
			c-0.538,0.271-1.175,0.406-1.909,0.406c-0.996,0-1.771-0.255-2.324-0.766c-0.555-0.51-0.831-1.217-0.831-2.119
			c0-0.989,0.412-1.758,1.237-2.306c0.824-0.548,2.018-0.837,3.58-0.868l1.933-0.057V71.27c0-0.965-0.196-1.692-0.589-2.185
			c-0.392-0.491-1.023-0.737-1.895-0.737c-0.94,0-1.914,0.261-2.923,0.784l-0.345-0.803c1.114-0.523,2.216-0.784,3.305-0.784
			c1.114,0,1.946,0.289,2.497,0.868c0.551,0.578,0.826,1.481,0.826,2.707v6.75H369.89z M366.156,77.217
			c1.083,0,1.938-0.31,2.563-0.929c0.625-0.62,0.938-1.48,0.938-2.582v-0.999l-1.773,0.075c-1.425,0.068-2.441,0.291-3.048,0.667
			c-0.607,0.377-0.91,0.964-0.91,1.76c0,0.635,0.194,1.129,0.583,1.48S365.447,77.217,366.156,77.217z"/>
		<path fill="#FFFFFF" d="M380.935,77.87v-6.582c0-1.021-0.215-1.763-0.644-2.227c-0.43-0.464-1.096-0.695-1.998-0.695
			c-1.214,0-2.103,0.307-2.665,0.92c-0.563,0.612-0.846,1.607-0.846,2.982v5.602h-0.924V67.722h0.784l0.178,1.392h0.056
			c0.659-1.059,1.833-1.587,3.52-1.587c2.303,0,3.454,1.235,3.454,3.706v6.638H380.935z"/>
		<path fill="#FFFFFF" d="M389.235,78.057c-1.476,0-2.625-0.454-3.45-1.363c-0.824-0.908-1.236-2.181-1.236-3.818
			c0-1.618,0.397-2.914,1.194-3.888c0.797-0.975,1.87-1.461,3.221-1.461c1.195,0,2.139,0.417,2.829,1.251
			c0.691,0.834,1.036,1.967,1.036,3.397v0.747h-7.31c0.013,1.395,0.338,2.459,0.976,3.193s1.551,1.102,2.74,1.102
			c0.578,0,1.087-0.041,1.526-0.121c0.438-0.081,0.994-0.256,1.666-0.523v0.841c-0.572,0.249-1.102,0.418-1.587,0.509
			C390.355,78.012,389.82,78.057,389.235,78.057z M388.963,68.348c-0.977,0-1.761,0.322-2.353,0.966
			c-0.591,0.645-0.937,1.573-1.036,2.787h6.273c0-1.177-0.255-2.096-0.765-2.759C390.573,68.679,389.866,68.348,388.963,68.348z"/>
		<path fill="#FFFFFF" d="M396.554,77.87h-0.924V63.344h0.924V77.87z"/>
	</g>
	<g>
		<circle fill="#FFFFFF" enable-background="new    " cx="40.563" cy="40.37" r="14.072"/>
		<path fill="#FFC033" d="M40.48,23.603L40.48,23.603l34.005-0.001C68.302,11.119,55.436,2.536,40.563,2.536
			c-12.039,0-22.766,5.624-29.694,14.389l12.973,22.187C24.484,30.466,31.68,23.646,40.48,23.603z"/>
		<path fill="#484848" d="M40.563,57.138c-7.256,0-13.435-4.609-15.771-11.06L9.135,19.302C5.091,25.323,2.73,32.57,2.73,40.37
			c0,19.043,14.07,34.798,32.383,37.44l13.054-22.491C45.884,56.481,43.3,57.138,40.563,57.138z"/>
		<path fill="#9C9C9C" d="M75.691,26.298H49.685c4.603,2.989,7.646,8.175,7.646,14.072c0,2.899-0.736,5.628-2.032,8.006l0.01,0.007
			L38.052,78.118c0.83,0.054,1.667,0.085,2.511,0.085c20.896,0,37.834-16.938,37.834-37.833
			C78.397,35.396,77.436,30.647,75.691,26.298z"/>
	</g>
</g>
</svg>
