<?xml version="1.0" encoding="utf-8"?>
<!-- Generator: Adobe Illustrator 16.0.0, SVG Export Plug-In . SVG Version: 6.00 Build 0)  -->
<!DOCTYPE svg PUBLIC "-//W3C//DTD SVG 1.0//EN" "http://www.w3.org/TR/2001/REC-SVG-20010904/DTD/svg10.dtd">
<svg version="1.0" id="Layer_1" xmlns="http://www.w3.org/2000/svg" xmlns:xlink="http://www.w3.org/1999/xlink" x="0px" y="0px"
	 width="28px" height="28px" viewBox="0 0 28 28" enable-background="new 0 0 28 28" xml:space="preserve">
<path fill="#FFFFFF" d="M0,0v28h28V0H0z M24.581,21.358c0.877,0.887,0.889,2.336,0.031,3.225c-0.859,0.863-2.367,0.864-3.227-0.001
	l-7.369-7.368l-7.369,7.37C5.78,25.448,4.281,25.45,3.413,24.58c-0.429-0.423-0.667-0.988-0.667-1.592
	c-0.001-0.609,0.237-1.182,0.671-1.614l7.369-7.377L3.414,6.626c-0.43-0.425-0.667-0.993-0.668-1.598
	C2.745,4.421,2.983,3.85,3.42,3.416c0.426-0.432,0.994-0.67,1.599-0.67s1.176,0.238,1.608,0.671l7.369,7.37l7.38-7.373
	c0.851-0.863,2.338-0.866,3.21,0.007c0.428,0.42,0.665,0.984,0.667,1.586c0.002,0.609-0.236,1.184-0.671,1.619l-7.368,7.366
	L24.581,21.358z"/>
</svg>
